<svg id="svg" version="1.1" xmlns="http://www.w3.org/2000/svg" xmlns:xlink="http://www.w3.org/1999/xlink" width="400" height="228.78228782287823" viewBox="0, 0, 400,228.78228782287823"><g id="svgg"><path id="path0" d="M231.465 40.992 C 228.506 41.366,224.292 42.711,222.626 43.813 C 222.144 44.132,221.670 44.395,221.572 44.396 C 221.475 44.397,220.944 44.757,220.391 45.197 C 219.839 45.636,219.317 45.995,219.233 45.995 C 218.487 45.995,213.568 51.936,212.628 53.971 C 212.416 54.430,212.154 54.870,212.045 54.949 C 211.719 55.187,210.272 59.496,209.943 61.213 C 209.315 64.483,209.624 71.463,210.469 73.106 C 210.662 73.480,210.964 74.405,211.140 75.161 C 211.317 75.917,211.646 76.744,211.872 76.998 C 212.098 77.252,212.425 77.820,212.598 78.261 C 212.974 79.218,214.846 81.780,216.554 83.675 C 217.569 84.801,220.424 87.185,220.757 87.185 C 220.880 87.185,221.160 87.382,221.377 87.622 C 221.594 87.862,222.099 88.188,222.499 88.345 C 222.899 88.503,223.484 88.867,223.799 89.155 C 224.113 89.443,224.731 89.839,225.172 90.036 C 225.612 90.233,226.642 90.801,227.460 91.298 C 228.278 91.795,229.514 92.513,230.206 92.895 C 230.898 93.276,231.979 93.899,232.609 94.279 C 233.238 94.659,234.371 95.291,235.126 95.684 C 235.881 96.077,236.550 96.476,236.613 96.572 C 236.676 96.668,237.346 97.048,238.101 97.415 C 238.856 97.783,240.246 98.548,241.190 99.114 C 244.967 101.379,246.144 102.059,246.284 102.059 C 246.364 102.059,246.888 102.368,247.447 102.746 C 248.007 103.124,248.562 103.432,248.682 103.432 C 248.801 103.432,249.077 103.629,249.295 103.869 C 249.512 104.109,250.017 104.437,250.417 104.596 C 250.817 104.756,251.562 105.181,252.073 105.540 C 253.170 106.311,254.119 106.850,255.835 107.677 C 256.527 108.010,257.145 108.356,257.208 108.447 C 257.271 108.537,258.249 109.106,259.382 109.712 C 260.515 110.317,261.905 111.093,262.471 111.435 C 265.424 113.221,268.147 114.792,268.732 115.046 C 269.445 115.356,272.475 117.316,272.942 117.769 C 273.100 117.922,273.460 118.118,273.743 118.204 C 274.025 118.289,274.462 118.538,274.714 118.756 C 275.164 119.147,277.031 120.213,278.833 121.108 C 279.336 121.358,279.916 121.710,280.121 121.890 C 280.325 122.070,280.919 122.444,281.439 122.722 C 281.959 122.999,283.645 123.937,285.185 124.805 C 286.726 125.673,288.398 126.605,288.902 126.877 C 289.405 127.149,290.253 127.649,290.785 127.988 C 291.317 128.327,291.822 128.604,291.907 128.604 C 291.993 128.604,292.400 128.862,292.812 129.176 C 293.225 129.491,293.640 129.748,293.735 129.748 C 293.932 129.748,296.681 131.341,298.055 132.252 C 298.558 132.585,299.228 132.986,299.542 133.141 C 299.857 133.297,300.681 133.778,301.373 134.209 C 302.065 134.641,303.235 135.304,303.972 135.681 C 304.709 136.059,305.429 136.464,305.573 136.581 C 306.050 136.967,310.374 139.373,312.929 140.674 C 318.185 143.349,326.168 144.239,330.664 142.652 C 331.230 142.452,332.246 142.142,332.921 141.964 C 334.465 141.556,337.196 140.251,338.358 139.365 C 341.655 136.852,342.686 135.917,343.812 134.418 C 344.182 133.926,344.548 133.473,344.628 133.410 C 344.969 133.138,346.625 130.480,346.909 129.748 C 347.080 129.308,347.390 128.690,347.599 128.375 C 348.390 127.182,349.474 123.272,349.713 120.749 C 350.746 109.834,346.097 100.957,336.390 95.309 C 335.741 94.931,334.779 94.359,334.253 94.037 C 332.173 92.765,330.742 91.908,329.977 91.479 C 329.537 91.231,329.022 90.892,328.833 90.725 C 328.644 90.558,328.232 90.310,327.917 90.174 C 327.603 90.039,326.573 89.470,325.629 88.911 C 324.685 88.352,323.398 87.619,322.769 87.281 C 322.140 86.944,321.573 86.604,321.510 86.526 C 321.447 86.448,320.830 86.103,320.137 85.760 C 318.794 85.092,316.728 83.938,315.789 83.330 C 315.475 83.126,314.857 82.775,314.416 82.549 C 313.976 82.322,312.946 81.731,312.128 81.235 C 311.310 80.739,310.207 80.121,309.678 79.862 C 309.148 79.604,308.646 79.280,308.561 79.144 C 308.477 79.007,307.932 78.689,307.350 78.436 C 306.769 78.184,306.087 77.802,305.835 77.588 C 305.266 77.104,302.211 75.286,301.967 75.286 C 301.868 75.286,301.514 75.092,301.179 74.855 C 300.458 74.343,299.208 73.617,297.483 72.706 C 296.791 72.341,296.062 71.897,295.863 71.719 C 295.664 71.541,295.447 71.396,295.380 71.396 C 295.258 71.396,292.927 70.123,291.190 69.108 C 290.686 68.813,289.841 68.349,289.312 68.075 C 288.782 67.802,288.186 67.442,287.986 67.277 C 287.787 67.112,287.139 66.733,286.547 66.435 C 285.227 65.773,283.745 64.889,283.329 64.517 C 283.158 64.365,282.421 63.950,281.691 63.596 C 280.960 63.242,280.290 62.836,280.202 62.693 C 280.113 62.550,279.615 62.235,279.094 61.993 C 277.990 61.480,276.770 60.785,275.184 59.766 C 274.562 59.366,273.980 59.039,273.892 59.039 C 273.803 59.039,273.077 58.642,272.277 58.157 C 271.478 57.672,270.000 56.839,268.993 56.307 C 267.986 55.774,267.059 55.253,266.934 55.150 C 266.726 54.979,263.719 53.240,261.098 51.775 C 260.532 51.458,259.914 51.070,259.725 50.912 C 259.537 50.755,258.970 50.403,258.467 50.131 C 257.963 49.859,256.882 49.232,256.064 48.737 C 255.246 48.242,254.216 47.658,253.776 47.440 C 253.335 47.221,252.832 46.904,252.658 46.734 C 252.484 46.564,251.866 46.191,251.285 45.905 C 249.955 45.251,247.719 44.026,247.024 43.571 C 246.540 43.254,244.818 42.573,242.449 41.761 C 239.960 40.908,234.921 40.556,231.465 40.992 " stroke="none" fill="#45995f" fill-rule="evenodd"></path><path id="path1" d="M143.455 40.374 C 143.400 40.429,142.359 40.634,141.141 40.830 C 138.469 41.260,136.007 42.063,134.211 43.091 C 133.959 43.235,133.203 43.636,132.530 43.982 C 131.858 44.328,130.931 44.845,130.471 45.130 C 129.438 45.771,128.794 46.136,127.067 47.064 C 126.324 47.462,125.581 47.952,125.416 48.151 C 125.251 48.350,124.999 48.513,124.858 48.514 C 124.716 48.514,124.136 48.828,123.570 49.210 C 123.003 49.593,122.231 50.054,121.854 50.234 C 121.476 50.414,120.498 50.969,119.680 51.466 C 117.737 52.648,115.999 53.649,114.302 54.563 C 113.547 54.970,112.363 55.644,111.670 56.062 C 110.978 56.479,109.897 57.104,109.268 57.449 C 106.556 58.938,105.036 59.813,103.318 60.876 C 102.311 61.499,101.384 62.014,101.259 62.020 C 101.133 62.027,100.673 62.337,100.237 62.710 C 99.802 63.082,99.305 63.387,99.135 63.387 C 98.964 63.387,98.393 63.682,97.867 64.042 C 97.341 64.402,96.679 64.770,96.395 64.859 C 96.111 64.947,95.596 65.252,95.250 65.535 C 94.647 66.030,93.733 66.573,91.129 67.982 C 86.619 70.423,84.813 71.436,84.439 71.733 C 84.251 71.883,83.478 72.348,82.723 72.766 C 81.968 73.184,80.990 73.733,80.549 73.986 C 80.109 74.240,79.285 74.707,78.719 75.024 C 78.152 75.341,77.370 75.838,76.981 76.130 C 76.591 76.421,76.161 76.659,76.026 76.659 C 75.890 76.659,75.488 76.893,75.132 77.180 C 74.776 77.466,74.176 77.847,73.799 78.026 C 73.421 78.205,72.803 78.574,72.426 78.844 C 72.048 79.115,71.276 79.560,70.709 79.834 C 70.143 80.107,69.165 80.639,68.535 81.016 C 67.906 81.393,66.822 81.986,66.125 82.333 C 65.429 82.680,64.554 83.180,64.180 83.444 C 63.807 83.708,62.626 84.396,61.556 84.973 C 60.486 85.550,59.256 86.283,58.823 86.603 C 58.389 86.923,57.893 87.185,57.720 87.185 C 57.547 87.185,56.956 87.494,56.407 87.872 C 55.859 88.249,55.312 88.558,55.193 88.558 C 55.074 88.558,54.841 88.721,54.676 88.919 C 54.511 89.118,53.855 89.541,53.218 89.860 C 52.581 90.179,51.839 90.642,51.569 90.889 C 51.299 91.136,50.739 91.511,50.324 91.722 C 49.516 92.132,49.174 92.677,49.724 92.677 C 49.908 92.677,50.187 92.523,50.343 92.334 C 50.500 92.145,50.762 91.991,50.926 91.991 C 51.090 91.991,51.532 91.731,51.909 91.414 C 52.286 91.097,53.062 90.631,53.633 90.378 C 54.205 90.125,54.729 89.827,54.798 89.715 C 54.912 89.530,56.504 88.593,58.924 87.286 C 60.759 86.295,62.392 85.384,63.959 84.477 C 64.840 83.967,66.127 83.236,66.819 82.852 C 68.910 81.695,70.109 80.972,70.666 80.534 C 70.958 80.305,71.550 80.001,71.982 79.858 C 72.415 79.715,72.769 79.502,72.769 79.384 C 72.769 79.266,73.313 78.921,73.977 78.617 C 74.642 78.313,75.379 77.851,75.615 77.591 C 75.850 77.330,76.183 77.117,76.354 77.117 C 76.690 77.117,77.465 76.723,78.061 76.249 C 78.480 75.915,79.853 75.149,81.632 74.256 C 82.290 73.925,82.884 73.565,82.952 73.455 C 83.020 73.346,83.665 72.971,84.387 72.623 C 85.108 72.274,85.749 71.927,85.812 71.851 C 85.924 71.716,87.011 71.085,89.359 69.792 C 89.989 69.446,91.224 68.744,92.105 68.233 C 92.986 67.722,94.119 67.077,94.622 66.801 C 95.126 66.525,95.829 66.056,96.185 65.758 C 96.540 65.461,96.943 65.217,97.078 65.217 C 97.214 65.217,97.644 64.975,98.033 64.680 C 98.423 64.384,99.231 63.926,99.828 63.663 C 100.426 63.399,100.915 63.089,100.915 62.973 C 100.915 62.857,101.404 62.580,102.002 62.357 C 102.600 62.135,103.302 61.760,103.562 61.525 C 103.821 61.291,104.136 61.098,104.261 61.098 C 104.385 61.098,104.996 60.771,105.619 60.372 C 106.241 59.972,107.162 59.423,107.666 59.152 C 110.123 57.830,111.191 57.223,112.230 56.559 C 112.853 56.161,113.439 55.835,113.534 55.835 C 113.773 55.835,116.527 54.210,116.878 53.862 C 117.036 53.705,117.394 53.504,117.673 53.416 C 117.953 53.327,118.685 52.908,119.300 52.485 C 119.914 52.062,120.548 51.716,120.707 51.716 C 120.866 51.716,121.134 51.551,121.301 51.349 C 121.469 51.147,122.125 50.752,122.760 50.471 C 123.394 50.190,124.054 49.788,124.227 49.579 C 124.400 49.370,124.648 49.199,124.778 49.199 C 124.908 49.199,125.354 48.940,125.769 48.623 C 126.184 48.307,126.972 47.855,127.521 47.620 C 128.070 47.385,128.666 47.045,128.847 46.865 C 129.028 46.685,129.743 46.264,130.435 45.929 C 131.127 45.594,131.848 45.228,132.037 45.114 C 132.381 44.907,133.555 44.306,135.469 43.357 C 138.723 41.744,142.740 41.061,147.712 41.276 C 150.808 41.410,151.915 41.607,154.348 42.459 C 160.233 44.519,164.921 48.410,167.958 53.753 C 168.144 54.080,168.531 54.715,168.818 55.163 C 169.104 55.611,169.492 56.566,169.680 57.286 C 169.867 58.005,170.183 58.842,170.382 59.146 C 171.388 60.681,171.303 71.038,170.265 73.313 C 169.985 73.927,169.697 74.803,169.626 75.258 C 169.555 75.714,169.209 76.499,168.856 77.002 C 168.504 77.506,168.147 78.203,168.064 78.552 C 167.980 78.901,167.737 79.313,167.524 79.468 C 167.310 79.622,166.815 80.219,166.422 80.795 C 164.776 83.208,160.275 87.236,158.127 88.216 C 157.688 88.416,157.112 88.784,156.847 89.033 C 156.374 89.477,155.426 90.035,153.270 91.139 C 152.678 91.442,152.058 91.802,151.893 91.939 C 151.728 92.076,150.607 92.692,149.402 93.307 C 148.197 93.923,146.912 94.637,146.546 94.895 C 146.180 95.153,145.328 95.661,144.653 96.023 C 143.977 96.386,142.845 96.998,142.136 97.385 C 140.827 98.098,136.874 100.429,134.712 101.762 C 134.059 102.165,133.042 102.755,132.453 103.074 C 131.864 103.392,131.319 103.755,131.242 103.879 C 131.165 104.004,130.667 104.299,130.134 104.534 C 129.602 104.770,128.995 105.134,128.785 105.344 C 128.576 105.553,127.960 105.934,127.417 106.191 C 126.056 106.833,122.479 108.792,119.565 110.490 C 118.684 111.003,117.603 111.605,117.162 111.826 C 116.722 112.048,115.931 112.516,115.405 112.866 C 114.879 113.215,114.354 113.501,114.238 113.501 C 114.122 113.501,113.626 113.789,113.135 114.141 C 112.644 114.493,111.911 114.916,111.506 115.081 C 111.102 115.246,110.647 115.530,110.496 115.711 C 110.346 115.892,109.782 116.242,109.244 116.487 C 108.153 116.984,107.766 117.394,108.396 117.386 C 108.909 117.380,110.127 116.787,112.357 115.458 C 113.301 114.895,114.588 114.170,115.217 113.847 C 115.847 113.524,117.031 112.854,117.849 112.358 C 118.667 111.862,119.800 111.217,120.366 110.926 C 121.274 110.459,122.087 109.985,123.693 108.989 C 124.476 108.504,127.082 107.050,128.032 106.568 C 128.535 106.313,129.155 105.920,129.408 105.695 C 129.662 105.469,130.247 105.127,130.708 104.934 C 131.170 104.741,131.613 104.477,131.694 104.347 C 131.774 104.217,132.373 103.841,133.025 103.513 C 133.677 103.184,134.262 102.844,134.325 102.757 C 134.388 102.671,135.057 102.262,135.812 101.849 C 137.224 101.077,137.780 100.765,140.732 99.088 C 142.460 98.106,143.583 97.481,146.110 96.094 C 146.865 95.680,147.534 95.275,147.597 95.194 C 147.660 95.113,147.866 94.979,148.055 94.896 C 148.244 94.814,149.273 94.234,150.343 93.609 C 151.413 92.983,152.752 92.219,153.318 91.910 C 153.884 91.602,154.657 91.082,155.034 90.755 C 155.412 90.428,155.876 90.161,156.065 90.160 C 156.254 90.160,156.916 89.800,157.535 89.359 C 158.155 88.919,158.779 88.558,158.922 88.558 C 159.065 88.558,159.381 88.375,159.625 88.151 C 159.869 87.928,160.550 87.464,161.139 87.121 C 162.472 86.346,165.930 82.914,167.028 81.278 C 168.424 79.197,170.023 76.242,170.023 75.743 C 170.023 75.648,170.287 74.993,170.610 74.287 C 172.166 70.890,172.135 60.186,170.562 57.767 C 170.394 57.507,170.113 56.820,169.938 56.238 C 169.763 55.657,169.402 54.875,169.135 54.501 C 168.868 54.126,168.650 53.721,168.650 53.600 C 168.650 53.316,167.100 51.032,166.104 49.849 C 162.617 45.704,158.811 43.061,154.119 41.525 C 151.498 40.667,143.974 39.855,143.455 40.374 M271.749 118.249 C 271.436 118.721,270.843 119.251,270.430 119.426 C 270.017 119.601,269.371 119.972,268.993 120.250 C 268.616 120.528,267.843 120.960,267.277 121.210 C 266.711 121.460,266.106 121.836,265.933 122.045 C 265.760 122.254,265.503 122.426,265.361 122.426 C 265.219 122.427,264.743 122.658,264.302 122.939 C 263.125 123.691,261.159 124.827,259.725 125.583 C 259.033 125.948,257.746 126.657,256.865 127.158 C 255.984 127.659,254.851 128.303,254.348 128.589 C 253.844 128.874,253.278 129.240,253.089 129.402 C 252.900 129.564,252.334 129.902,251.831 130.154 C 249.932 131.103,248.165 132.088,248.055 132.258 C 247.992 132.355,247.426 132.708,246.796 133.043 C 246.167 133.378,245.137 133.974,244.508 134.367 C 243.879 134.761,242.283 135.697,240.961 136.449 C 237.013 138.695,235.632 139.483,234.668 140.039 C 234.165 140.330,233.084 140.930,232.265 141.373 C 231.447 141.816,230.572 142.351,230.320 142.563 C 230.069 142.774,229.502 143.085,229.062 143.254 C 228.621 143.423,227.978 143.793,227.633 144.076 C 227.287 144.359,226.773 144.663,226.489 144.751 C 225.926 144.925,222.611 146.875,222.426 147.141 C 222.363 147.231,221.951 147.489,221.510 147.714 C 218.721 149.138,214.019 154.136,212.361 157.437 C 212.077 158.003,211.651 158.848,211.414 159.314 C 211.177 159.780,210.984 160.308,210.984 160.487 C 210.984 160.667,210.814 161.212,210.607 161.700 C 209.590 164.088,209.187 172.373,209.946 175.286 C 212.226 184.035,218.330 190.889,226.316 193.669 C 233.591 196.202,244.043 194.990,249.130 191.024 C 249.280 190.907,249.814 190.587,250.317 190.314 C 250.819 190.041,251.772 189.522,252.435 189.160 C 253.097 188.799,253.901 188.326,254.222 188.109 C 255.509 187.239,265.132 181.693,265.356 181.693 C 265.401 181.693,266.001 181.333,266.689 180.892 C 267.378 180.452,267.983 180.092,268.034 180.092 C 268.085 180.092,269.042 179.559,270.162 178.907 C 273.148 177.170,274.517 176.391,275.811 175.693 C 276.447 175.351,277.026 174.984,277.099 174.879 C 277.248 174.662,278.990 173.653,280.588 172.859 C 281.175 172.567,281.724 172.218,281.808 172.082 C 281.891 171.947,282.440 171.595,283.028 171.299 C 285.010 170.302,286.608 169.409,287.503 168.799 C 287.993 168.465,288.492 168.192,288.612 168.192 C 288.732 168.192,289.108 167.995,289.448 167.753 C 289.787 167.512,290.678 166.977,291.428 166.566 C 292.178 166.154,293.307 165.532,293.936 165.184 C 294.565 164.835,295.646 164.238,296.339 163.856 C 297.031 163.475,298.061 162.877,298.627 162.528 C 299.193 162.179,299.996 161.689,300.410 161.439 C 300.824 161.189,302.471 160.191,304.071 159.222 C 305.671 158.254,308.164 156.802,309.611 155.996 C 311.058 155.191,313.015 154.093,313.959 153.556 C 314.903 153.020,316.087 152.349,316.590 152.065 C 317.094 151.782,318.278 151.110,319.222 150.572 C 320.166 150.034,321.419 149.354,322.006 149.062 C 322.594 148.769,323.139 148.426,323.217 148.299 C 323.296 148.172,323.793 147.862,324.323 147.610 C 324.853 147.358,326.007 146.684,326.888 146.114 C 327.769 145.543,328.953 144.816,329.519 144.497 C 330.086 144.179,331.167 143.565,331.922 143.132 C 333.387 142.292,334.728 141.648,335.011 141.648 C 335.106 141.648,335.311 141.495,335.465 141.309 C 335.671 141.062,335.326 141.116,334.177 141.512 C 330.656 142.727,329.474 143.031,327.243 143.293 C 322.680 143.828,317.132 142.813,312.929 140.674 C 310.374 139.373,306.050 136.967,305.573 136.581 C 305.429 136.464,304.709 136.059,303.972 135.681 C 303.235 135.304,302.065 134.641,301.373 134.209 C 300.681 133.778,299.857 133.297,299.542 133.141 C 299.228 132.986,298.558 132.585,298.055 132.252 C 296.681 131.341,293.932 129.748,293.735 129.748 C 293.640 129.748,293.225 129.491,292.812 129.176 C 292.400 128.862,291.993 128.604,291.907 128.604 C 291.822 128.604,291.317 128.327,290.785 127.988 C 290.253 127.649,289.405 127.149,288.902 126.877 C 288.398 126.605,286.726 125.673,285.185 124.805 C 283.645 123.937,281.959 122.999,281.439 122.722 C 280.919 122.444,280.325 122.070,280.121 121.890 C 279.916 121.710,279.336 121.358,278.833 121.108 C 277.078 120.236,275.168 119.151,274.714 118.767 C 274.462 118.555,273.922 118.249,273.513 118.087 C 273.104 117.926,272.769 117.703,272.769 117.592 C 272.769 117.133,272.281 117.447,271.749 118.249 " stroke="none" fill="#f1bd42" fill-rule="evenodd"></path><path id="path2" d="M234.554 40.441 C 226.491 40.965,218.950 44.426,215.723 49.085 C 215.461 49.462,216.106 48.922,217.156 47.883 C 218.206 46.845,219.137 45.995,219.226 45.995 C 219.314 45.995,219.839 45.636,220.391 45.197 C 220.944 44.757,221.475 44.397,221.572 44.396 C 221.670 44.395,222.144 44.132,222.626 43.813 C 225.507 41.907,232.003 40.511,236.590 40.812 C 237.773 40.890,238.696 40.908,238.640 40.852 C 238.479 40.691,235.432 40.384,234.554 40.441 M240.503 41.306 C 241.322 41.467,242.300 41.703,242.677 41.831 C 244.963 42.605,246.630 43.305,247.397 43.813 C 247.879 44.132,248.342 44.394,248.425 44.394 C 248.508 44.394,249.088 44.708,249.714 45.093 C 250.339 45.478,250.898 45.745,250.956 45.687 C 251.591 45.052,241.821 40.932,239.817 40.989 C 239.205 41.007,239.366 41.081,240.503 41.306 M251.945 46.254 C 252.386 46.521,252.818 46.852,252.905 46.990 C 252.993 47.128,253.128 47.177,253.206 47.099 C 253.390 46.915,251.888 45.766,251.466 45.767 C 251.289 45.768,251.505 45.987,251.945 46.254 M253.547 47.237 C 253.547 47.291,253.830 47.484,254.176 47.667 C 255.069 48.138,257.218 49.374,257.895 49.806 L 258.467 50.171 257.895 49.690 C 256.794 48.766,253.547 46.934,253.547 47.237 M214.709 50.400 C 214.052 51.116,212.355 53.793,212.366 54.097 C 212.371 54.235,212.537 54.049,212.735 53.683 C 212.933 53.318,213.598 52.314,214.213 51.452 C 215.374 49.825,215.517 49.522,214.709 50.400 M259.293 50.639 C 260.509 51.462,260.794 51.593,260.283 51.094 C 259.800 50.623,258.967 50.114,258.679 50.114 C 258.590 50.114,258.866 50.351,259.293 50.639 M261.785 52.049 C 261.785 52.107,262.531 52.580,263.444 53.102 C 264.356 53.623,265.618 54.364,266.247 54.748 C 266.876 55.131,268.164 55.857,269.108 56.360 C 270.051 56.863,271.478 57.672,272.277 58.157 C 273.077 58.642,273.813 59.039,273.913 59.039 C 274.014 59.039,274.631 59.399,275.286 59.840 C 275.941 60.280,276.543 60.641,276.625 60.642 C 276.707 60.642,277.237 60.951,277.803 61.327 C 278.370 61.704,278.930 62.012,279.050 62.013 C 279.306 62.014,275.670 59.696,274.027 58.810 C 273.398 58.471,272.420 57.933,271.854 57.614 C 271.287 57.295,270.000 56.573,268.993 56.010 C 267.986 55.448,266.493 54.599,265.675 54.125 C 264.857 53.650,263.827 53.059,263.387 52.811 C 262.946 52.563,262.488 52.266,262.368 52.152 C 262.140 51.934,261.785 51.872,261.785 52.049 M211.304 55.971 C 211.115 56.423,210.992 56.888,211.030 57.003 C 211.069 57.119,211.267 56.749,211.471 56.181 C 211.913 54.952,211.793 54.800,211.304 55.971 M209.725 61.098 C 209.637 61.744,209.612 62.320,209.671 62.379 C 209.730 62.438,209.849 61.956,209.935 61.308 C 210.021 60.660,210.045 60.084,209.989 60.027 C 209.933 59.971,209.814 60.453,209.725 61.098 M280.017 62.554 C 280.700 63.124,282.003 63.851,282.311 63.834 C 282.412 63.829,282.093 63.612,281.602 63.354 C 281.111 63.095,280.499 62.687,280.243 62.448 C 279.986 62.209,279.685 62.014,279.573 62.014 C 279.461 62.014,279.661 62.257,280.017 62.554 M209.472 65.789 C 209.473 67.551,209.509 68.242,209.552 67.324 C 209.596 66.406,209.596 64.964,209.552 64.120 C 209.508 63.276,209.472 64.027,209.472 65.789 M282.952 64.212 C 283.482 64.738,284.955 65.639,286.666 66.486 C 287.324 66.811,287.921 67.171,287.992 67.286 C 288.062 67.400,288.502 67.669,288.969 67.883 C 289.435 68.098,290.090 68.461,290.424 68.691 C 290.758 68.920,291.119 69.104,291.225 69.100 C 291.538 69.089,290.593 68.430,289.359 67.801 C 288.730 67.480,288.164 67.141,288.101 67.048 C 288.038 66.955,287.574 66.673,287.071 66.421 C 285.983 65.876,283.869 64.671,283.066 64.138 C 282.495 63.759,282.495 63.759,282.952 64.212 M291.648 69.295 C 291.974 69.644,295.248 71.419,295.359 71.308 C 295.410 71.257,294.650 70.766,293.669 70.218 C 291.650 69.090,291.311 68.935,291.648 69.295 M209.634 70.500 C 209.646 70.930,209.743 71.539,209.847 71.854 C 209.971 72.223,209.992 71.980,209.908 71.167 C 209.759 69.727,209.600 69.340,209.634 70.500 M296.224 71.980 C 296.602 72.287,297.019 72.538,297.152 72.539 C 297.285 72.540,297.889 72.854,298.494 73.238 C 299.100 73.622,299.640 73.891,299.695 73.836 C 299.822 73.709,298.594 72.949,296.875 72.090 C 295.632 71.469,295.586 71.461,296.224 71.980 M210.078 72.671 C 210.073 72.806,210.270 73.321,210.517 73.815 C 210.764 74.309,210.966 74.559,210.965 74.371 C 210.965 73.974,210.093 72.302,210.078 72.671 M300.000 73.997 C 300.000 74.156,301.873 75.320,301.971 75.222 C 302.025 75.168,301.657 74.852,301.154 74.519 C 300.278 73.939,300.000 73.813,300.000 73.997 M302.632 75.557 C 302.883 75.698,303.398 76.025,303.776 76.285 C 304.336 76.669,304.402 76.681,304.136 76.349 C 303.956 76.125,303.524 75.795,303.174 75.614 C 302.431 75.230,301.960 75.180,302.632 75.557 M211.788 77.181 C 212.009 77.531,212.248 77.760,212.318 77.690 C 212.388 77.619,212.208 77.333,211.916 77.053 L 211.386 76.545 211.788 77.181 M304.920 76.931 C 305.172 77.074,305.669 77.431,306.024 77.725 C 306.380 78.020,306.792 78.258,306.940 78.254 C 307.087 78.250,307.002 78.131,306.751 77.988 C 306.499 77.846,306.002 77.489,305.646 77.195 C 305.290 76.900,304.878 76.662,304.731 76.666 C 304.583 76.670,304.668 76.789,304.920 76.931 M307.927 78.701 C 308.322 78.942,308.715 79.250,308.799 79.386 C 308.883 79.523,309.070 79.634,309.215 79.634 C 309.606 79.634,307.954 78.281,307.551 78.271 C 307.363 78.266,307.532 78.460,307.927 78.701 M212.815 79.386 C 212.815 79.501,212.897 79.630,212.998 79.672 C 213.099 79.714,213.485 80.172,213.856 80.691 C 215.715 83.288,216.644 84.342,218.188 85.610 C 219.953 87.058,222.149 88.543,222.540 88.552 C 222.746 88.556,222.270 88.202,220.938 87.360 C 218.561 85.857,216.337 83.655,213.990 80.477 C 213.038 79.188,212.815 78.981,212.815 79.386 M310.398 80.211 C 310.865 80.529,311.729 81.052,312.317 81.374 C 312.906 81.697,313.859 82.235,314.436 82.571 C 315.012 82.906,315.888 83.406,316.381 83.682 C 316.874 83.958,317.637 84.396,318.078 84.656 C 318.518 84.915,319.445 85.410,320.137 85.756 C 320.830 86.102,321.447 86.448,321.510 86.526 C 321.573 86.604,322.140 86.942,322.769 87.278 C 323.398 87.614,324.273 88.104,324.714 88.366 C 325.154 88.629,326.017 89.144,326.631 89.511 C 327.245 89.878,327.790 90.135,327.843 90.082 C 327.949 89.976,326.889 89.326,323.190 87.228 C 321.038 86.008,318.735 84.727,317.522 84.078 C 316.902 83.746,316.267 83.348,316.111 83.192 C 315.956 83.036,315.485 82.772,315.065 82.603 C 314.645 82.435,313.872 82.007,313.345 81.652 C 312.819 81.297,312.334 81.007,312.266 81.007 C 312.199 81.007,311.657 80.698,311.062 80.320 C 309.751 79.489,309.201 79.399,310.398 80.211 M222.883 88.630 C 222.883 88.669,223.218 88.943,223.627 89.238 L 224.371 89.775 223.816 89.167 C 223.342 88.647,222.883 88.383,222.883 88.630 M225.744 90.529 C 225.995 90.724,226.786 91.182,227.500 91.547 C 228.215 91.911,228.863 92.312,228.940 92.437 C 229.017 92.562,229.562 92.877,230.150 93.137 C 230.738 93.397,231.404 93.777,231.629 93.981 C 231.855 94.186,232.100 94.292,232.174 94.218 C 232.248 94.144,231.758 93.777,231.085 93.402 C 230.413 93.027,229.502 92.504,229.062 92.240 C 226.246 90.554,225.558 90.161,225.430 90.167 C 225.351 90.171,225.492 90.334,225.744 90.529 M328.964 90.840 C 329.458 91.214,329.958 91.523,330.075 91.527 C 330.192 91.530,329.883 91.227,329.389 90.853 C 328.894 90.479,328.394 90.170,328.277 90.167 C 328.160 90.163,328.469 90.466,328.964 90.840 M330.892 91.960 C 331.207 92.221,332.031 92.754,332.723 93.144 C 333.415 93.534,334.548 94.201,335.240 94.627 C 335.932 95.052,336.911 95.626,337.414 95.902 C 340.463 97.572,343.978 100.977,346.003 104.224 C 346.628 105.226,347.140 105.932,347.140 105.794 C 347.140 104.185,339.419 95.881,337.924 95.881 C 337.837 95.881,337.203 95.521,336.514 95.080 C 335.826 94.640,335.168 94.279,335.053 94.279 C 334.938 94.279,334.598 94.086,334.298 93.849 C 333.324 93.083,330.074 91.280,330.892 91.960 M53.089 92.461 C 52.649 92.579,51.568 92.680,50.686 92.685 C 49.059 92.693,46.156 93.834,44.050 95.292 C 43.673 95.554,43.192 95.870,42.982 95.996 C 40.075 97.735,35.240 102.437,35.240 103.527 C 35.240 103.618,34.955 104.124,34.606 104.650 C 31.109 109.922,29.849 119.350,31.932 124.659 C 32.241 125.447,32.494 126.243,32.494 126.428 C 32.494 127.509,35.183 132.248,37.166 134.662 C 38.019 135.701,38.470 136.146,40.252 137.706 C 41.155 138.497,43.632 140.116,45.423 141.086 C 46.304 141.563,47.797 142.419,48.741 142.988 C 49.685 143.557,50.950 144.262,51.553 144.555 C 52.155 144.849,53.072 145.396,53.589 145.771 C 54.107 146.146,54.657 146.453,54.812 146.453 C 54.966 146.453,55.234 146.624,55.407 146.834 C 55.579 147.043,56.145 147.402,56.663 147.632 C 57.181 147.862,57.725 148.194,57.872 148.371 C 58.019 148.548,58.470 148.824,58.875 148.986 C 59.280 149.147,59.874 149.460,60.196 149.681 C 60.518 149.902,61.342 150.382,62.027 150.747 C 62.712 151.112,63.942 151.802,64.760 152.281 C 65.578 152.760,66.762 153.433,67.391 153.776 C 68.021 154.120,69.153 154.774,69.908 155.229 C 70.664 155.685,71.642 156.241,72.082 156.465 C 73.046 156.956,74.873 158.002,75.973 158.693 C 76.413 158.970,77.546 159.639,78.490 160.180 C 79.434 160.722,80.618 161.444,81.121 161.785 C 81.625 162.126,82.140 162.445,82.265 162.495 C 82.391 162.545,83.300 163.049,84.286 163.616 C 85.271 164.182,86.558 164.915,87.146 165.246 C 87.734 165.576,88.987 166.285,89.931 166.822 C 90.875 167.359,92.081 168.025,92.611 168.302 C 93.140 168.580,93.707 168.915,93.869 169.047 C 94.032 169.179,94.525 169.488,94.966 169.733 C 95.406 169.978,96.567 170.633,97.545 171.188 C 100.822 173.047,101.939 173.673,102.860 174.164 C 103.364 174.432,103.982 174.828,104.233 175.044 C 104.733 175.473,105.830 176.131,107.775 177.166 C 108.464 177.533,109.134 177.920,109.263 178.026 C 109.391 178.132,110.063 178.516,110.755 178.879 C 112.321 179.701,113.060 180.129,113.501 180.473 C 113.690 180.620,114.514 181.096,115.332 181.531 C 118.854 183.401,126.080 187.574,127.002 188.270 C 127.317 188.508,127.935 188.841,128.375 189.010 C 128.816 189.180,129.382 189.491,129.634 189.701 C 130.166 190.145,131.418 190.890,133.144 191.790 C 133.816 192.140,134.486 192.525,134.632 192.645 C 134.879 192.849,136.410 193.436,138.558 194.151 C 143.609 195.831,153.623 195.050,157.208 192.695 C 157.523 192.488,158.181 192.137,158.672 191.914 C 162.616 190.121,168.580 183.345,169.782 179.291 C 169.931 178.787,170.243 178.015,170.474 177.574 C 170.705 177.134,171.011 175.950,171.154 174.943 C 171.297 173.936,171.522 172.391,171.653 171.510 C 172.027 169.005,171.190 162.435,170.344 161.226 C 170.167 160.974,170.023 160.645,170.023 160.494 C 170.023 159.863,168.218 156.477,166.716 154.291 C 165.286 152.209,162.563 149.681,159.877 147.941 C 158.517 147.059,157.026 146.091,156.563 145.789 C 156.100 145.487,155.206 144.965,154.577 144.630 C 152.850 143.709,151.176 142.755,150.884 142.526 C 150.741 142.413,150.175 142.085,149.625 141.797 C 149.076 141.508,147.906 140.839,147.025 140.310 C 146.144 139.782,144.805 139.041,144.050 138.664 C 143.295 138.288,142.008 137.571,141.190 137.073 C 140.372 136.574,139.342 135.990,138.902 135.774 C 138.461 135.558,137.782 135.144,137.393 134.853 C 137.003 134.563,136.615 134.325,136.530 134.325 C 136.444 134.325,135.969 134.056,135.473 133.728 C 134.977 133.400,134.265 132.962,133.892 132.756 C 133.518 132.549,132.459 131.917,131.538 131.351 C 130.616 130.785,129.573 130.195,129.218 130.040 C 128.863 129.884,128.262 129.536,127.882 129.266 C 127.503 128.995,126.763 128.546,126.239 128.268 C 125.362 127.802,121.158 125.463,118.421 123.918 C 117.792 123.562,117.222 123.188,117.154 123.086 C 117.087 122.984,116.675 122.740,116.239 122.543 C 115.803 122.347,114.674 121.730,113.730 121.173 C 112.786 120.616,111.550 119.906,110.984 119.595 C 110.418 119.284,109.621 118.671,109.213 118.233 C 108.727 117.711,108.026 117.295,107.184 117.030 C 106.476 116.808,105.573 116.406,105.177 116.137 C 104.470 115.657,104.199 115.504,101.986 114.335 C 101.379 114.015,100.332 113.387,99.659 112.940 C 98.986 112.494,98.377 112.128,98.306 112.128 C 98.235 112.128,96.863 111.374,95.256 110.453 C 91.323 108.199,90.996 108.010,89.537 107.151 C 88.843 106.742,88.184 106.407,88.073 106.407 C 87.963 106.407,87.384 106.064,86.785 105.644 C 86.187 105.224,85.363 104.748,84.954 104.586 C 84.545 104.425,84.211 104.214,84.211 104.117 C 84.211 104.021,83.824 103.760,83.352 103.538 C 82.880 103.315,82.176 102.891,81.786 102.596 C 81.397 102.301,80.994 102.059,80.891 102.059 C 80.788 102.059,79.768 101.504,78.624 100.824 C 71.438 96.554,67.114 94.338,64.073 93.365 C 61.272 92.470,54.978 91.951,53.089 92.461 M232.599 94.492 C 232.671 94.609,234.453 95.653,236.560 96.812 C 238.666 97.971,240.852 99.205,241.419 99.554 C 241.985 99.902,242.860 100.421,243.364 100.706 C 244.818 101.531,246.503 102.502,247.339 102.997 C 247.763 103.248,248.153 103.410,248.207 103.357 C 248.312 103.252,246.851 102.303,246.110 101.994 C 245.858 101.890,245.189 101.517,244.622 101.166 C 242.203 99.667,238.933 97.793,237.877 97.300 C 237.250 97.008,236.684 96.686,236.618 96.584 C 236.553 96.482,235.932 96.115,235.240 95.767 C 234.548 95.420,233.708 94.943,233.374 94.707 C 232.717 94.244,232.389 94.153,232.599 94.492 M249.085 104.002 C 249.462 104.314,250.286 104.825,250.915 105.137 C 251.545 105.450,252.317 105.878,252.632 106.090 C 253.026 106.355,252.990 106.289,252.517 105.878 C 252.140 105.550,251.313 105.032,250.679 104.727 C 250.046 104.422,249.390 104.006,249.221 103.802 C 249.052 103.599,248.798 103.433,248.656 103.434 C 248.514 103.434,248.707 103.690,249.085 104.002 M347.140 106.348 C 347.140 106.456,347.246 106.651,347.376 106.781 C 347.506 106.911,347.810 107.524,348.052 108.143 C 348.293 108.761,348.496 109.086,348.502 108.865 C 348.514 108.403,347.645 106.464,347.342 106.276 C 347.231 106.208,347.140 106.240,347.140 106.348 M253.661 106.681 C 253.913 106.824,254.170 107.011,254.233 107.097 C 254.375 107.292,255.289 107.780,255.511 107.780 C 255.602 107.780,255.222 107.473,254.668 107.098 C 254.114 106.723,253.558 106.417,253.432 106.418 C 253.307 106.420,253.410 106.538,253.661 106.681 M256.769 108.424 C 258.122 109.286,260.316 110.586,261.442 111.194 C 261.945 111.466,262.975 112.043,263.730 112.476 C 264.485 112.909,265.515 113.484,266.018 113.752 C 266.522 114.021,267.114 114.400,267.335 114.594 C 267.557 114.789,267.794 114.891,267.864 114.821 C 267.934 114.751,266.981 114.101,265.746 113.376 C 264.511 112.651,263.038 111.778,262.471 111.435 C 261.905 111.093,260.515 110.317,259.382 109.712 C 258.249 109.106,257.271 108.542,257.208 108.459 C 257.062 108.264,256.147 107.780,255.925 107.780 C 255.833 107.780,256.212 108.070,256.769 108.424 M348.543 109.611 C 348.540 109.800,348.733 110.418,348.970 110.984 C 349.246 111.642,349.407 111.841,349.415 111.537 C 349.422 111.275,349.351 110.984,349.256 110.891 C 349.162 110.798,348.964 110.395,348.816 109.995 C 348.668 109.595,348.545 109.422,348.543 109.611 M349.730 114.645 C 349.730 115.463,349.772 115.798,349.822 115.389 C 349.873 114.980,349.873 114.311,349.822 113.902 C 349.772 113.493,349.730 113.827,349.730 114.645 M268.192 114.985 C 268.192 115.047,268.550 115.246,268.988 115.429 C 269.425 115.612,270.011 115.974,270.289 116.233 C 270.568 116.493,270.905 116.703,271.039 116.700 C 271.369 116.693,270.329 115.876,269.288 115.324 C 268.415 114.861,268.192 114.792,268.192 114.985 M349.948 117.849 C 349.948 118.415,349.993 118.647,350.047 118.364 C 350.102 118.081,350.102 117.617,350.047 117.334 C 349.993 117.051,349.948 117.283,349.948 117.849 M349.620 121.739 C 349.537 122.683,349.250 124.010,348.982 124.688 C 348.714 125.365,348.542 126.035,348.600 126.175 C 348.658 126.315,348.714 126.276,348.725 126.087 C 348.735 125.898,348.893 125.458,349.076 125.108 C 349.532 124.233,349.937 122.043,349.846 120.938 C 349.790 120.255,349.733 120.458,349.620 121.739 M348.193 127.105 C 348.100 127.473,347.843 128.039,347.622 128.361 C 347.401 128.684,347.081 129.308,346.911 129.748 C 346.741 130.189,346.392 130.858,346.136 131.236 C 345.757 131.794,345.745 131.862,346.072 131.600 C 346.576 131.195,348.578 127.085,348.454 126.711 C 348.403 126.558,348.285 126.736,348.193 127.105 M345.329 132.457 C 345.194 132.710,344.950 133.053,344.787 133.220 C 344.625 133.387,344.187 133.926,343.816 134.418 C 342.678 135.924,341.651 136.855,338.355 139.368 C 337.866 139.741,337.577 140.046,337.712 140.046 C 337.848 140.046,338.025 139.939,338.106 139.808 C 338.187 139.677,338.653 139.318,339.140 139.010 C 341.452 137.550,346.171 132.594,345.699 132.121 C 345.631 132.053,345.464 132.204,345.329 132.457 " stroke="none" fill="#5584eb" fill-rule="evenodd"></path><path id="path3" d="M141.876 41.413 C 140.178 41.636,136.988 42.604,135.469 43.357 C 133.555 44.306,132.381 44.907,132.037 45.114 C 131.848 45.228,131.127 45.594,130.435 45.929 C 129.743 46.264,129.028 46.685,128.847 46.865 C 128.666 47.045,128.070 47.385,127.521 47.620 C 126.972 47.855,126.184 48.307,125.769 48.623 C 125.354 48.940,124.908 49.199,124.778 49.199 C 124.648 49.199,124.400 49.370,124.227 49.579 C 124.054 49.788,123.394 50.190,122.760 50.471 C 122.125 50.752,121.469 51.147,121.301 51.349 C 121.134 51.551,120.866 51.716,120.707 51.716 C 120.548 51.716,119.914 52.062,119.300 52.485 C 118.685 52.908,117.953 53.327,117.673 53.416 C 117.394 53.504,117.036 53.705,116.878 53.862 C 116.527 54.210,113.773 55.835,113.534 55.835 C 113.439 55.835,112.853 56.161,112.230 56.559 C 111.191 57.223,110.123 57.830,107.666 59.152 C 107.162 59.423,106.241 59.972,105.619 60.372 C 104.996 60.771,104.385 61.098,104.261 61.098 C 104.136 61.098,103.821 61.291,103.562 61.525 C 103.302 61.760,102.600 62.135,102.002 62.357 C 101.404 62.580,100.915 62.857,100.915 62.973 C 100.915 63.089,100.426 63.399,99.828 63.663 C 99.231 63.926,98.423 64.384,98.033 64.680 C 97.644 64.975,97.214 65.217,97.078 65.217 C 96.943 65.217,96.540 65.461,96.185 65.758 C 95.829 66.056,95.126 66.525,94.622 66.801 C 94.119 67.077,92.986 67.722,92.105 68.233 C 91.224 68.744,89.989 69.446,89.359 69.792 C 87.011 71.085,85.924 71.716,85.812 71.851 C 85.749 71.927,85.108 72.274,84.387 72.623 C 83.665 72.971,83.020 73.346,82.952 73.455 C 82.884 73.565,82.290 73.925,81.632 74.256 C 79.853 75.149,78.480 75.915,78.061 76.249 C 77.465 76.723,76.690 77.117,76.354 77.117 C 76.183 77.117,75.850 77.330,75.615 77.591 C 75.379 77.851,74.642 78.313,73.977 78.617 C 73.313 78.921,72.769 79.266,72.769 79.384 C 72.769 79.502,72.415 79.715,71.982 79.858 C 71.550 80.001,70.958 80.305,70.666 80.534 C 70.109 80.972,68.910 81.695,66.819 82.852 C 66.127 83.236,64.840 83.967,63.959 84.477 C 62.392 85.384,60.759 86.295,58.924 87.286 C 56.504 88.593,54.912 89.530,54.798 89.715 C 54.729 89.827,54.205 90.125,53.633 90.378 C 53.062 90.631,52.286 91.097,51.909 91.414 C 51.532 91.731,51.090 91.991,50.926 91.991 C 50.762 91.991,50.510 92.133,50.366 92.306 C 49.963 92.792,50.668 92.869,52.517 92.540 C 54.742 92.145,58.203 92.155,60.335 92.563 C 61.321 92.752,62.362 92.906,62.648 92.906 C 63.379 92.906,66.937 94.330,69.172 95.516 C 74.920 98.567,75.623 98.959,78.290 100.605 C 79.375 101.275,80.457 101.894,80.692 101.980 C 80.928 102.066,81.552 102.428,82.078 102.785 C 82.604 103.141,83.125 103.432,83.235 103.432 C 83.345 103.432,83.790 103.697,84.223 104.020 C 84.657 104.344,85.370 104.761,85.809 104.947 C 86.248 105.133,86.814 105.479,87.068 105.717 C 87.321 105.954,87.786 106.259,88.101 106.394 C 88.415 106.529,89.445 107.094,90.389 107.649 C 92.275 108.758,96.426 111.110,98.398 112.186 C 99.090 112.564,99.914 113.050,100.229 113.265 C 100.543 113.481,101.110 113.812,101.487 114.000 C 102.557 114.534,104.280 115.528,105.110 116.091 C 106.982 117.362,109.265 117.194,110.510 115.694 C 110.653 115.522,111.102 115.246,111.506 115.081 C 111.911 114.916,112.644 114.493,113.135 114.141 C 113.626 113.789,114.122 113.501,114.238 113.501 C 114.354 113.501,114.879 113.215,115.405 112.866 C 115.931 112.516,116.722 112.048,117.162 111.826 C 117.603 111.605,118.684 111.003,119.565 110.490 C 122.479 108.792,126.056 106.833,127.417 106.191 C 127.960 105.934,128.576 105.553,128.785 105.344 C 128.995 105.134,129.602 104.770,130.134 104.534 C 130.667 104.299,131.165 104.004,131.242 103.879 C 131.319 103.755,131.864 103.392,132.453 103.074 C 133.042 102.755,134.059 102.165,134.712 101.762 C 136.874 100.429,140.827 98.098,142.136 97.385 C 142.845 96.998,143.977 96.386,144.653 96.023 C 145.328 95.661,146.180 95.153,146.546 94.895 C 146.912 94.637,148.197 93.923,149.402 93.307 C 150.607 92.692,151.728 92.076,151.893 91.939 C 152.058 91.802,152.678 91.442,153.270 91.139 C 155.426 90.035,156.374 89.477,156.847 89.033 C 157.112 88.784,157.688 88.416,158.127 88.216 C 158.914 87.857,159.665 87.354,161.279 86.107 C 162.585 85.099,165.638 81.945,166.422 80.795 C 166.815 80.219,167.310 79.622,167.524 79.468 C 167.737 79.313,167.980 78.901,168.064 78.552 C 168.147 78.203,168.504 77.506,168.856 77.002 C 169.209 76.499,169.555 75.714,169.626 75.258 C 169.697 74.803,169.985 73.927,170.265 73.313 C 171.303 71.038,171.388 60.681,170.382 59.146 C 170.183 58.842,169.867 58.005,169.680 57.286 C 169.492 56.566,169.104 55.611,168.818 55.163 C 168.531 54.715,168.144 54.080,167.958 53.753 C 165.651 49.693,162.542 46.639,158.092 44.062 C 156.842 43.338,154.460 42.418,152.059 41.731 C 150.681 41.337,144.033 41.129,141.876 41.413 " stroke="none" fill="#d95040" fill-rule="evenodd"></path><path id="path4" d="M0.000 114.416 L 0.000 228.833 200.000 228.833 L 400.000 228.833 400.000 114.416 L 400.000 0.000 200.000 0.000 L 0.000 0.000 0.000 114.416 M150.458 40.714 C 153.327 41.211,154.566 41.575,156.922 42.611 C 160.821 44.325,164.950 47.928,167.763 52.073 C 168.251 52.792,168.650 53.479,168.650 53.600 C 168.650 53.721,168.868 54.126,169.135 54.501 C 169.402 54.875,169.763 55.657,169.938 56.238 C 170.113 56.820,170.394 57.507,170.562 57.767 C 172.135 60.186,172.166 70.890,170.610 74.287 C 170.287 74.993,170.023 75.648,170.023 75.743 C 170.023 76.242,168.424 79.197,167.028 81.278 C 165.930 82.914,162.472 86.346,161.139 87.121 C 160.550 87.464,159.869 87.928,159.625 88.151 C 159.381 88.375,159.065 88.558,158.922 88.558 C 158.779 88.558,158.155 88.919,157.535 89.359 C 156.916 89.800,156.254 90.160,156.065 90.160 C 155.876 90.161,155.412 90.428,155.034 90.755 C 154.657 91.082,153.884 91.602,153.318 91.910 C 152.752 92.219,151.413 92.983,150.343 93.609 C 149.273 94.234,148.244 94.814,148.055 94.896 C 147.866 94.979,147.660 95.113,147.597 95.194 C 147.534 95.275,146.865 95.680,146.110 96.094 C 143.583 97.481,142.460 98.106,140.732 99.088 C 137.780 100.765,137.224 101.077,135.812 101.849 C 135.057 102.262,134.388 102.671,134.325 102.757 C 134.262 102.844,133.677 103.184,133.025 103.513 C 132.373 103.841,131.774 104.217,131.694 104.347 C 131.613 104.477,131.170 104.741,130.708 104.934 C 130.247 105.127,129.662 105.469,129.408 105.695 C 129.155 105.920,128.535 106.313,128.032 106.568 C 127.082 107.050,124.476 108.504,123.693 108.989 C 122.087 109.985,121.274 110.459,120.366 110.926 C 119.800 111.217,118.667 111.862,117.849 112.358 C 117.031 112.854,115.847 113.524,115.217 113.847 C 114.588 114.170,113.301 114.897,112.357 115.462 C 111.413 116.027,110.159 116.709,109.571 116.978 L 108.501 117.467 109.228 118.249 C 109.627 118.679,110.418 119.284,110.984 119.595 C 111.550 119.906,112.786 120.616,113.730 121.173 C 114.674 121.730,115.803 122.347,116.239 122.543 C 116.675 122.740,117.087 122.984,117.154 123.086 C 117.222 123.188,117.792 123.562,118.421 123.918 C 121.158 125.463,125.362 127.802,126.239 128.268 C 126.763 128.546,127.503 128.995,127.882 129.266 C 128.262 129.536,128.863 129.884,129.218 130.040 C 129.573 130.195,130.616 130.785,131.538 131.351 C 132.459 131.917,133.518 132.549,133.892 132.756 C 134.265 132.962,134.977 133.400,135.473 133.728 C 135.969 134.056,136.444 134.325,136.530 134.325 C 136.615 134.325,137.003 134.563,137.393 134.853 C 137.782 135.144,138.461 135.558,138.902 135.774 C 139.342 135.990,140.372 136.574,141.190 137.073 C 142.008 137.571,143.295 138.288,144.050 138.664 C 144.805 139.041,146.144 139.782,147.025 140.310 C 147.906 140.839,149.076 141.508,149.625 141.797 C 150.175 142.085,150.741 142.413,150.884 142.526 C 151.176 142.755,152.850 143.709,154.577 144.630 C 155.206 144.965,156.100 145.487,156.563 145.789 C 157.026 146.091,158.517 147.059,159.877 147.941 C 162.563 149.681,165.286 152.209,166.716 154.291 C 168.218 156.477,170.023 159.863,170.023 160.494 C 170.023 160.645,170.167 160.974,170.344 161.226 C 171.190 162.435,172.027 169.005,171.653 171.510 C 171.522 172.391,171.297 173.936,171.154 174.943 C 171.011 175.950,170.705 177.134,170.474 177.574 C 170.243 178.015,169.931 178.787,169.782 179.291 C 168.580 183.345,162.616 190.121,158.672 191.914 C 158.181 192.137,157.523 192.488,157.208 192.695 C 153.623 195.050,143.609 195.831,138.558 194.151 C 136.410 193.436,134.879 192.849,134.632 192.645 C 134.486 192.525,133.816 192.140,133.144 191.790 C 131.418 190.890,130.166 190.145,129.634 189.701 C 129.382 189.491,128.816 189.180,128.375 189.010 C 127.935 188.841,127.317 188.508,127.002 188.270 C 126.080 187.574,118.854 183.401,115.332 181.531 C 114.514 181.096,113.690 180.620,113.501 180.473 C 113.060 180.129,112.321 179.701,110.755 178.879 C 110.063 178.516,109.391 178.132,109.263 178.026 C 109.134 177.920,108.464 177.533,107.775 177.166 C 105.830 176.131,104.733 175.473,104.233 175.044 C 103.982 174.828,103.364 174.432,102.860 174.164 C 101.939 173.673,100.822 173.047,97.545 171.188 C 96.567 170.633,95.406 169.978,94.966 169.733 C 94.525 169.488,94.032 169.179,93.869 169.047 C 93.707 168.915,93.140 168.580,92.611 168.302 C 92.081 168.025,90.875 167.359,89.931 166.822 C 88.987 166.285,87.734 165.576,87.146 165.246 C 86.558 164.915,85.271 164.182,84.286 163.616 C 83.300 163.049,82.391 162.545,82.265 162.495 C 82.140 162.445,81.625 162.126,81.121 161.785 C 80.618 161.444,79.434 160.722,78.490 160.180 C 77.546 159.639,76.413 158.970,75.973 158.693 C 74.873 158.002,73.046 156.956,72.082 156.465 C 71.642 156.241,70.664 155.685,69.908 155.229 C 69.153 154.774,68.021 154.120,67.391 153.776 C 66.762 153.433,65.578 152.760,64.760 152.281 C 63.942 151.802,62.712 151.112,62.027 150.747 C 61.342 150.382,60.518 149.902,60.196 149.681 C 59.874 149.460,59.280 149.147,58.875 148.986 C 58.470 148.824,58.019 148.548,57.872 148.371 C 57.725 148.194,57.181 147.862,56.663 147.632 C 56.145 147.402,55.579 147.043,55.407 146.834 C 55.234 146.624,54.966 146.453,54.812 146.453 C 54.657 146.453,54.107 146.146,53.589 145.771 C 53.072 145.396,52.155 144.849,51.553 144.555 C 50.950 144.262,49.685 143.557,48.741 142.988 C 47.797 142.419,46.304 141.563,45.423 141.086 C 43.632 140.116,41.155 138.497,40.252 137.706 C 38.470 136.146,38.019 135.701,37.166 134.662 C 35.183 132.248,32.494 127.509,32.494 126.428 C 32.494 126.243,32.241 125.447,31.932 124.659 C 29.849 119.350,31.109 109.922,34.606 104.650 C 34.955 104.124,35.240 103.618,35.240 103.527 C 35.240 102.437,40.075 97.735,42.982 95.996 C 43.192 95.870,43.673 95.554,44.050 95.292 C 44.428 95.031,45.753 94.319,46.995 93.710 C 48.236 93.101,49.493 92.362,49.787 92.068 C 50.082 91.774,50.466 91.533,50.641 91.533 C 50.816 91.533,51.155 91.316,51.395 91.050 C 51.634 90.785,52.403 90.279,53.103 89.925 C 53.803 89.571,54.510 89.119,54.676 88.920 C 54.841 88.721,55.074 88.558,55.193 88.558 C 55.312 88.558,55.859 88.249,56.407 87.872 C 56.956 87.494,57.547 87.185,57.720 87.185 C 57.893 87.185,58.389 86.923,58.823 86.603 C 59.256 86.283,60.486 85.550,61.556 84.973 C 62.626 84.396,63.807 83.708,64.180 83.444 C 64.554 83.180,65.429 82.680,66.125 82.333 C 66.822 81.986,67.906 81.393,68.535 81.016 C 69.165 80.639,70.143 80.107,70.709 79.834 C 71.276 79.560,72.048 79.115,72.426 78.844 C 72.803 78.574,73.421 78.205,73.799 78.026 C 74.176 77.847,74.776 77.466,75.132 77.180 C 75.488 76.893,75.890 76.659,76.026 76.659 C 76.161 76.659,76.591 76.421,76.981 76.130 C 77.370 75.838,78.152 75.341,78.719 75.024 C 79.285 74.707,80.109 74.240,80.549 73.986 C 80.990 73.733,81.968 73.184,82.723 72.766 C 83.478 72.348,84.251 71.883,84.439 71.733 C 84.813 71.436,86.619 70.423,91.129 67.982 C 93.733 66.573,94.647 66.030,95.250 65.535 C 95.596 65.252,96.111 64.947,96.395 64.859 C 96.679 64.770,97.341 64.402,97.867 64.042 C 98.393 63.682,98.964 63.387,99.135 63.387 C 99.305 63.387,99.802 63.082,100.237 62.710 C 100.673 62.337,101.133 62.027,101.259 62.020 C 101.384 62.014,102.311 61.499,103.318 60.876 C 105.036 59.813,106.556 58.938,109.268 57.449 C 109.897 57.104,110.978 56.479,111.670 56.062 C 112.363 55.644,113.547 54.970,114.302 54.563 C 115.999 53.649,117.737 52.648,119.680 51.466 C 120.498 50.969,121.476 50.414,121.854 50.234 C 122.231 50.054,123.003 49.593,123.570 49.210 C 124.136 48.828,124.716 48.514,124.858 48.514 C 124.999 48.513,125.251 48.350,125.416 48.151 C 125.581 47.952,126.324 47.462,127.067 47.064 C 128.794 46.136,129.438 45.771,130.471 45.130 C 130.931 44.845,131.858 44.328,132.530 43.982 C 133.203 43.636,133.959 43.235,134.211 43.091 C 136.007 42.063,138.469 41.260,141.141 40.830 C 142.359 40.634,143.400 40.429,143.455 40.374 C 143.721 40.108,148.225 40.327,150.458 40.714 M239.818 40.944 C 242.520 41.279,245.508 42.417,249.062 44.463 C 250.307 45.180,251.444 45.767,251.587 45.767 C 251.731 45.767,252.204 46.071,252.640 46.444 C 253.076 46.816,253.529 47.125,253.648 47.130 C 253.899 47.141,256.779 48.837,257.780 49.563 C 258.158 49.837,258.698 50.131,258.980 50.217 C 259.263 50.303,259.645 50.524,259.830 50.709 C 260.015 50.894,260.710 51.335,261.376 51.689 C 262.041 52.042,262.946 52.541,263.387 52.797 C 266.448 54.575,267.369 55.102,268.993 56.010 C 270.000 56.573,271.287 57.295,271.854 57.614 C 272.420 57.933,273.398 58.471,274.027 58.810 C 274.657 59.149,276.093 60.009,277.219 60.720 C 278.345 61.432,279.381 62.014,279.521 62.014 C 279.662 62.014,279.989 62.212,280.249 62.454 C 280.508 62.696,281.326 63.215,282.065 63.607 C 282.805 63.999,284.079 64.727,284.897 65.224 C 285.715 65.721,286.741 66.287,287.177 66.482 C 287.613 66.677,288.025 66.917,288.093 67.016 C 288.160 67.114,288.781 67.505,289.474 67.884 C 291.990 69.262,293.519 70.130,295.531 71.323 C 296.660 71.992,297.671 72.540,297.778 72.540 C 297.885 72.540,298.421 72.849,298.970 73.227 C 299.519 73.604,300.034 73.913,300.114 73.913 C 300.195 73.913,300.691 74.203,301.217 74.558 C 301.743 74.913,302.501 75.335,302.901 75.495 C 303.301 75.655,303.806 75.982,304.023 76.222 C 304.241 76.462,304.543 76.659,304.695 76.659 C 304.847 76.659,305.363 76.970,305.842 77.351 C 306.320 77.731,306.978 78.105,307.303 78.182 C 307.629 78.258,308.101 78.505,308.352 78.729 C 308.604 78.954,309.376 79.436,310.069 79.801 C 311.673 80.647,313.003 81.412,313.730 81.909 C 314.045 82.124,314.645 82.437,315.065 82.605 C 315.485 82.772,315.956 83.036,316.111 83.192 C 316.267 83.348,316.902 83.746,317.522 84.078 C 318.735 84.727,321.038 86.008,323.190 87.228 C 323.925 87.645,324.801 88.141,325.135 88.331 C 325.470 88.520,326.286 89.009,326.949 89.418 C 327.611 89.826,328.219 90.160,328.300 90.160 C 328.381 90.160,328.765 90.398,329.155 90.690 C 329.544 90.981,330.326 91.478,330.892 91.796 C 333.126 93.046,333.773 93.436,334.298 93.849 C 334.598 94.086,334.938 94.279,335.053 94.279 C 335.168 94.279,335.826 94.640,336.514 95.080 C 337.203 95.521,337.837 95.881,337.924 95.881 C 339.439 95.881,345.340 102.151,347.077 105.606 C 347.331 106.110,347.709 106.848,347.919 107.248 C 348.128 107.647,348.454 108.568,348.643 109.294 C 348.833 110.020,349.072 110.723,349.175 110.856 C 350.178 112.152,350.197 123.563,349.198 124.828 C 349.098 124.954,348.850 125.624,348.646 126.316 C 348.193 127.852,346.592 131.179,346.114 131.575 C 345.923 131.734,345.767 131.966,345.767 132.092 C 345.767 133.454,340.312 138.595,336.842 140.502 C 336.150 140.882,335.429 141.297,335.240 141.423 C 335.051 141.549,334.537 141.808,334.096 141.999 C 333.656 142.189,332.677 142.699,331.922 143.132 C 331.167 143.565,330.086 144.179,329.519 144.497 C 328.953 144.816,327.769 145.543,326.888 146.114 C 326.007 146.684,324.853 147.358,324.323 147.610 C 323.793 147.862,323.296 148.172,323.217 148.299 C 323.139 148.426,322.594 148.769,322.006 149.062 C 321.419 149.354,320.166 150.034,319.222 150.572 C 318.278 151.110,317.094 151.782,316.590 152.065 C 316.087 152.349,314.903 153.020,313.959 153.556 C 313.015 154.093,311.058 155.191,309.611 155.996 C 308.164 156.802,305.671 158.254,304.071 159.222 C 302.471 160.191,300.824 161.189,300.410 161.439 C 299.996 161.689,299.193 162.179,298.627 162.528 C 298.061 162.877,297.031 163.475,296.339 163.856 C 295.646 164.238,294.565 164.835,293.936 165.184 C 293.307 165.532,292.178 166.154,291.428 166.566 C 290.678 166.977,289.787 167.512,289.448 167.753 C 289.108 167.995,288.732 168.192,288.612 168.192 C 288.492 168.192,287.993 168.465,287.503 168.799 C 286.608 169.409,285.010 170.302,283.028 171.299 C 282.440 171.595,281.891 171.947,281.808 172.082 C 281.724 172.218,281.175 172.567,280.588 172.859 C 278.990 173.653,277.248 174.662,277.099 174.879 C 277.026 174.984,276.447 175.351,275.811 175.693 C 274.517 176.391,273.148 177.170,270.162 178.907 C 269.042 179.559,268.085 180.092,268.034 180.092 C 267.983 180.092,267.378 180.452,266.689 180.892 C 266.001 181.333,265.401 181.693,265.356 181.693 C 265.132 181.693,255.509 187.239,254.222 188.109 C 253.901 188.326,253.097 188.799,252.435 189.160 C 251.772 189.522,250.819 190.041,250.317 190.314 C 249.814 190.587,249.280 190.907,249.130 191.024 C 244.043 194.990,233.591 196.202,226.316 193.669 C 218.330 190.889,212.226 184.035,209.946 175.286 C 209.187 172.373,209.590 164.088,210.607 161.700 C 210.814 161.212,210.984 160.667,210.984 160.487 C 210.984 160.308,211.177 159.780,211.414 159.314 C 211.651 158.848,212.077 158.003,212.361 157.437 C 214.019 154.136,218.721 149.138,221.510 147.714 C 221.951 147.489,222.363 147.231,222.426 147.141 C 222.611 146.875,225.926 144.925,226.489 144.751 C 226.773 144.663,227.287 144.359,227.633 144.076 C 227.978 143.793,228.621 143.423,229.062 143.254 C 229.502 143.085,230.069 142.774,230.320 142.563 C 230.572 142.351,231.447 141.816,232.265 141.373 C 233.084 140.930,234.165 140.330,234.668 140.039 C 235.632 139.483,237.013 138.695,240.961 136.449 C 242.283 135.697,243.879 134.761,244.508 134.367 C 245.137 133.974,246.167 133.378,246.796 133.043 C 247.426 132.708,247.992 132.355,248.055 132.258 C 248.165 132.088,249.932 131.103,251.831 130.154 C 252.334 129.902,252.900 129.564,253.089 129.402 C 253.278 129.240,253.844 128.874,254.348 128.589 C 254.851 128.303,255.984 127.659,256.865 127.158 C 257.746 126.657,259.033 125.948,259.725 125.583 C 261.159 124.827,263.125 123.691,264.302 122.939 C 264.743 122.658,265.219 122.427,265.361 122.426 C 265.503 122.426,265.760 122.254,265.933 122.045 C 266.106 121.836,266.711 121.460,267.277 121.210 C 267.843 120.960,268.616 120.528,268.993 120.250 C 269.371 119.972,270.017 119.601,270.430 119.426 C 271.031 119.171,272.311 117.729,272.311 117.307 C 272.311 117.255,271.913 117.053,271.426 116.858 C 270.939 116.663,270.384 116.347,270.192 116.155 C 270.000 115.963,269.291 115.539,268.617 115.213 C 267.943 114.887,266.773 114.251,266.018 113.801 C 264.603 112.956,263.284 112.203,261.098 110.993 C 260.406 110.609,259.170 109.885,258.352 109.383 C 257.534 108.881,256.319 108.211,255.651 107.894 C 254.984 107.577,254.314 107.208,254.164 107.074 C 253.787 106.739,252.268 105.836,251.030 105.210 C 250.463 104.924,249.640 104.424,249.199 104.099 C 248.759 103.773,248.038 103.330,247.597 103.113 C 247.157 102.896,246.127 102.312,245.309 101.815 C 244.491 101.318,243.667 100.842,243.478 100.759 C 243.289 100.675,242.517 100.227,241.762 99.764 C 241.007 99.301,238.654 97.955,236.533 96.772 C 234.412 95.590,232.404 94.441,232.070 94.220 C 231.737 93.999,230.926 93.555,230.268 93.233 C 229.609 92.911,229.010 92.549,228.935 92.429 C 228.861 92.308,228.215 91.904,227.500 91.530 C 225.646 90.561,224.285 89.748,223.450 89.111 C 223.052 88.807,222.632 88.556,222.518 88.552 C 222.145 88.542,219.908 87.022,218.188 85.610 C 216.687 84.378,215.756 83.332,214.014 80.921 C 213.730 80.528,213.367 80.051,213.208 79.863 C 213.048 79.674,212.772 79.159,212.593 78.719 C 212.415 78.278,212.034 77.556,211.746 77.113 C 211.458 76.670,211.154 75.950,211.070 75.511 C 210.986 75.073,210.733 74.302,210.508 73.799 C 209.009 70.447,209.015 61.521,210.518 58.421 C 210.774 57.892,210.984 57.270,210.984 57.039 C 210.984 56.808,211.202 56.211,211.468 55.712 C 211.735 55.213,212.191 54.342,212.482 53.776 C 213.512 51.772,215.996 48.547,217.680 47.025 C 222.221 42.923,227.389 40.906,234.554 40.441 C 234.994 40.412,235.973 40.466,236.728 40.560 C 237.483 40.654,238.873 40.827,239.818 40.944 " stroke="none" fill="#ffffff" fill-rule="evenodd"></path></g></svg>